<?xml version="1.0" standalone="no"?>
<!DOCTYPE svg PUBLIC "-//W3C//DTD SVG 20010904//EN"
 "http://www.w3.org/TR/2001/REC-SVG-20010904/DTD/svg10.dtd">
<svg version="1.0" xmlns="http://www.w3.org/2000/svg"
 width="800.000000pt" height="537.000000pt" viewBox="0 0 800.000000 537.000000"
 preserveAspectRatio="xMidYMid meet">

<g transform="translate(0.000000,537.000000) scale(0.100000,-0.100000)"
fill="#000000" stroke="none">
<path d="M0 3945 l0 -1425 32 0 c36 0 98 -20 98 -32 0 -4 -12 -8 -27 -9 -25 0
-26 -1 -8 -9 16 -7 11 -9 -22 -9 -23 -1 -48 -4 -57 -7 -14 -6 -16 -123 -16
-1230 l0 -1224 4000 0 4000 0 0 530 0 530 -587 1 -588 0 -27 33 c-19 23 -33
58 -43 107 -17 80 -22 90 -34 70 -5 -7 -14 -10 -20 -6 -9 5 -9 10 -1 20 11 13
3 45 -14 57 -7 5 -5 8 5 8 8 0 20 -5 25 -10 6 -6 3 25 -7 71 -9 45 -23 87 -30
93 -9 8 -10 8 -6 0 4 -7 0 -17 -8 -24 -19 -15 -10 -31 13 -23 14 5 15 3 4 -8
-10 -11 -15 -11 -28 3 -10 10 -13 21 -8 30 12 19 14 39 3 32 -5 -3 -7 -10 -4
-15 4 -5 1 -9 -4 -9 -14 0 -13 11 3 32 7 10 16 14 20 10 4 -4 0 7 -10 24 -13
23 -25 31 -47 32 -16 0 -32 3 -35 7 -9 9 -11 36 -2 30 16 -10 17 44 1 61 -9 9
-11 14 -4 10 16 -9 21 14 11 49 -12 45 -11 50 26 68 l35 16 42 -50 c78 -94
175 -116 253 -59 58 43 110 77 170 109 98 53 114 65 131 97 11 20 32 39 55 48
20 8 44 26 53 39 9 14 29 28 45 32 46 10 56 41 47 142 -4 48 -6 99 -5 113 5
65 -6 220 -19 277 -7 27 -11 54 -10 59 4 16 -34 84 -48 84 -7 0 -13 5 -13 10
0 6 -7 10 -15 10 -8 0 -41 13 -72 29 -32 16 -89 43 -127 61 -75 36 -63 36
-226 3 -20 -4 -16 2 21 28 60 44 123 72 234 103 85 23 101 24 265 19 121 -4
183 -10 200 -19 23 -13 112 -74 135 -92 6 -4 26 -16 45 -26 31 -17 55 -23 168
-43 l32 -5 0 1286 0 1286 -4000 0 -4000 0 0 -1425z m378 -74 c223 -226 320
-337 326 -373 1 -8 12 -28 24 -46 l23 -32 -68 0 c-52 0 -74 -5 -93 -20 -14
-11 -29 -19 -35 -19 -5 0 -42 23 -82 52 -50 37 -115 103 -220 227 -82 96 -164
199 -183 229 l-34 54 49 45 c47 42 51 44 97 38 46 -6 55 -13 196 -155z m6137
-1 c-3 -6 1 -10 10 -10 26 0 8 -18 -25 -25 -17 -4 -30 -13 -30 -21 0 -13 -6
-15 -27 -13 -4 0 -10 -8 -14 -18 -6 -14 -8 -12 -8 10 -1 38 28 86 56 93 13 4
23 11 23 18 0 6 5 3 11 -7 5 -9 7 -22 4 -27z m-29 -222 c4 -6 3 -9 -2 -5 -5 3
-37 2 -71 -2 -51 -6 -60 -5 -51 6 13 16 114 18 124 1z m-146 -22 c0 -2 -8 -10
-17 -17 -16 -13 -17 -12 -4 4 13 16 21 21 21 13z m376 -65 c54 -26 62 -33 67
-62 2 -19 3 -35 2 -37 -2 -2 -27 -5 -56 -8 -29 -3 -67 -13 -84 -24 -16 -10
-43 -20 -59 -23 -17 -2 -39 -16 -51 -31 -24 -30 -45 -28 -45 3 0 25 11 33 27
20 9 -8 13 -8 13 -1 0 13 -7 17 -42 26 -26 6 -27 5 -18 -19 8 -20 6 -27 -6
-32 -8 -3 -20 -1 -27 6 -20 20 -29 12 -25 -26 l3 -36 -57 -12 c-31 -6 -63 -17
-72 -24 -9 -8 -16 -10 -16 -5 1 28 38 137 52 153 9 11 14 21 12 23 -2 3 2 5 9
5 6 1 26 7 44 14 30 12 34 11 58 -11 30 -28 40 -21 36 25 -2 31 1 35 31 43 18
5 51 21 72 36 49 33 57 33 132 -3z m-239 -7 c-3 -3 -12 -4 -19 -1 -8 3 -5 6 6
6 11 1 17 -2 13 -5z m348 -74 c3 -5 -1 -10 -9 -10 -9 0 -16 5 -16 10 0 6 4 10
9 10 6 0 13 -4 16 -10z m428 -65 c-22 -19 -24 -24 -10 -25 9 0 17 6 17 13 0 6
5 4 11 -6 6 -10 8 -21 5 -24 -3 -4 -6 0 -6 7 0 9 -5 7 -15 -6 -13 -16 -16 -17
-25 -4 -5 8 -10 18 -10 22 0 10 42 48 52 48 5 0 -4 -11 -19 -25z m131 -24 c-4
-3 -9 -1 -11 5 -4 13 -40 7 -60 -9 -10 -7 -13 -4 -13 11 0 15 8 22 28 24 27 4
68 -20 56 -31z m150 -2 c-3 -5 -10 -7 -15 -3 -5 3 -7 10 -3 15 3 5 10 7 15 3
5 -3 7 -10 3 -15z m-44 1 c0 -5 -7 -10 -16 -10 -8 0 -12 5 -9 10 3 6 10 10 16
10 5 0 9 -4 9 -10z m-272 -18 c3 -11 0 -12 -16 -3 -15 8 -23 8 -28 -1 -4 -7
-3 -8 5 -4 16 11 25 -22 11 -39 -11 -13 -10 -18 5 -29 17 -12 16 -14 -9 -20
-15 -4 -24 -10 -22 -15 3 -5 -1 -14 -9 -21 -8 -7 -15 -21 -15 -31 0 -27 -18
-33 -22 -7 -3 13 -4 -5 -4 -39 1 -51 4 -63 17 -63 9 0 19 -6 22 -14 7 -19 -24
-31 -36 -14 -6 10 -7 9 -4 -4 5 -14 -20 -48 -35 -48 -8 0 -21 96 -23 170 -2
64 -2 66 36 101 23 21 43 32 49 27 5 -4 8 -5 5 -2 -2 4 3 13 11 22 13 12 13
16 2 23 -10 7 -10 9 2 9 13 0 13 2 1 9 -10 7 -4 9 19 8 18 -1 35 -8 38 -15z
m-743 -63 c5 -14 1 -27 -9 -37 -15 -15 -16 -13 -16 21 0 40 15 50 25 16z m745
11 c0 -5 -5 -10 -11 -10 -5 0 -7 5 -4 10 3 6 8 10 11 10 2 0 4 -4 4 -10z m304
-45 c-4 -8 -16 -15 -28 -15 -20 1 -20 1 4 15 31 18 30 18 24 0z m-89 -5 c-3
-5 -14 -10 -23 -10 -15 0 -15 2 -2 10 20 13 33 13 25 0z m-6640 -10 c-3 -5
-12 -10 -18 -10 -7 0 -6 4 3 10 19 12 23 12 15 0z m5428 -27 c-7 -2 -19 -2
-25 0 -7 3 -2 5 12 5 14 0 19 -2 13 -5z m1127 -39 c0 -2 -7 -4 -15 -4 -8 0
-15 4 -15 10 0 5 7 7 15 4 8 -4 15 -8 15 -10z m-5000 -27 c14 4 23 -2 31 -21
10 -21 8 -37 -15 -100 -15 -41 -46 -105 -68 -142 -22 -37 -54 -95 -70 -130
-28 -61 -32 -64 -66 -65 -21 -1 -47 -3 -59 -4 -19 -2 -21 1 -17 29 4 24 3 28
-5 16 -9 -12 -11 -10 -11 13 0 20 5 27 20 27 14 0 22 11 30 43 6 23 37 89 69
147 77 143 85 161 70 170 -6 4 -8 13 -5 19 10 15 29 14 21 -1 -3 -7 0 -5 7 4
10 14 15 14 31 3 10 -7 27 -11 37 -8z m4090 -22 c-7 -9 -15 -13 -17 -11 -7 7
7 26 19 26 6 0 6 -6 -2 -15z m-5445 -15 c3 -5 19 -10 34 -10 30 0 67 -38 93
-95 11 -26 10 -30 -30 -67 -40 -36 -46 -39 -94 -36 -51 3 -53 4 -91 58 -24 35
-36 62 -33 74 3 11 0 26 -6 33 -8 10 -3 15 18 23 16 6 38 14 49 19 27 13 53
13 60 1z m5677 -472 c-2 -11 -13 -18 -28 -18 -13 0 -24 -5 -24 -10 0 -6 6 -10
13 -9 6 1 26 1 42 0 26 -2 27 -3 10 -10 -11 -5 -44 -12 -72 -16 -29 -4 -53
-11 -53 -16 0 -16 -77 -10 -84 6 -3 9 -12 12 -22 8 -13 -5 -12 -1 4 15 12 12
26 22 30 22 4 0 14 6 20 13 15 14 95 34 138 34 25 0 30 -4 26 -19z m-472 -138
c-33 -33 -60 -64 -60 -70 0 -5 -33 -26 -72 -45 -40 -19 -257 -151 -483 -293
l-409 -258 -52 -72 -51 -73 20 -67 c15 -53 31 -79 71 -122 28 -30 64 -69 80
-86 l28 -32 -19 -42 -18 -43 -92 97 -92 97 -39 117 -38 116 69 96 70 95 414
260 c409 257 642 384 706 385 26 0 24 -3 -33 -60z m241 37 c-13 -13 -26 -3
-16 12 3 6 11 8 17 5 6 -4 6 -10 -1 -17z m-5031 -187 c0 -5 -7 -10 -15 -10 -8
0 -18 0 -22 -1 -4 0 -9 4 -11 10 -2 6 8 11 22 11 14 0 26 -4 26 -10z m2658
-73 c2 -10 -2 -24 -8 -32 -7 -8 -14 -32 -15 -54 l-3 -38 76 -7 c83 -7 142 -22
142 -36 0 -48 -536 -63 -692 -20 -21 6 -38 15 -38 19 0 12 56 31 90 31 15 0
42 3 59 6 28 6 32 10 27 29 -7 28 8 35 70 35 41 0 44 2 39 23 -11 40 64 66
180 64 58 -2 70 -5 73 -20z m-1328 -167 c-7 -5 -54 -8 -103 -8 -48 0 -91 -3
-94 -6 -4 -3 23 -6 58 -7 45 -1 56 -3 39 -8 -14 -4 -24 -14 -22 -21 2 -8 -3
-10 -13 -6 -9 3 -51 7 -93 8 l-77 2 85 6 85 6 -100 4 c-55 1 -86 5 -70 7 17 3
35 9 40 15 7 8 6 9 -2 4 -7 -4 -13 -2 -13 3 0 7 50 11 147 10 87 0 141 -4 133
-9z m-1287 -16 c11 -11 -5 -34 -24 -34 -18 0 -26 20 -12 33 8 9 28 9 36 1z
m970 -31 c-7 -2 -19 -2 -25 0 -7 3 -2 5 12 5 14 0 19 -2 13 -5z m1200 -10 c-7
-2 -21 -2 -30 0 -10 3 -4 5 12 5 17 0 24 -2 18 -5z m84 -19 c-3 -3 -12 -4 -19
-1 -8 3 -5 6 6 6 11 1 17 -2 13 -5z m-2269 -411 c-4 -20 -30 -28 -56 -18 -15
6 -13 8 8 20 34 19 52 18 48 -2z m5252 -167 c0 -2 -7 -7 -16 -10 -8 -3 -12 -2
-9 4 6 10 25 14 25 6z m-4098 -146 c14 -33 15 -70 3 -70 -19 0 -25 25 -30 115
l-4 80 13 -55 c6 -30 15 -62 18 -70z m2967 -268 c-17 -2 -37 2 -46 10 -14 11
-12 14 13 25 26 10 31 9 46 -10 17 -21 16 -22 -13 -25z m-121 23 c6 -3 12 -9
12 -15 0 -6 -27 -10 -65 -10 -59 0 -65 2 -65 20 0 19 4 20 53 15 28 -4 58 -8
65 -10z"/>
<path d="M6451 3856 c-9 -11 -9 -16 0 -22 8 -5 9 -3 4 6 -6 10 -4 12 8 7 11
-4 14 -2 10 9 -6 17 -8 17 -22 0z"/>
<path d="M6360 3450 c-9 -6 -10 -10 -3 -10 6 0 15 5 18 10 8 12 4 12 -15 0z"/>
<path d="M6385 3380 c3 -5 8 -10 11 -10 2 0 4 5 4 10 0 6 -5 10 -11 10 -5 0
-7 -4 -4 -10z"/>
<path d="M7175 3351 c-3 -5 -1 -12 5 -16 5 -3 10 1 10 9 0 18 -6 21 -15 7z"/>
<path d="M7100 3275 c-7 -8 -8 -15 -2 -15 5 0 15 7 22 15 7 8 8 15 2 15 -5 0
-15 -7 -22 -15z"/>
<path d="M7080 3165 c0 -8 5 -15 10 -15 6 0 10 7 10 15 0 8 -4 15 -10 15 -5 0
-10 -7 -10 -15z"/>
<path d="M6518 2633 c6 -2 18 -2 25 0 6 3 1 5 -13 5 -14 0 -19 -2 -12 -5z"/>
<path d="M4041 2294 c0 -11 3 -14 6 -6 3 7 2 16 -1 19 -3 4 -6 -2 -5 -13z"/>
<path d="M3830 2255 c0 -8 4 -15 10 -15 5 0 7 7 4 15 -4 8 -8 15 -10 15 -2 0
-4 -7 -4 -15z"/>
<path d="M3670 2136 c0 -2 7 -7 16 -10 8 -3 12 -2 9 4 -6 10 -25 14 -25 6z"/>
<path d="M3688 2103 c7 -3 16 -2 19 1 4 3 -2 6 -13 5 -11 0 -14 -3 -6 -6z"/>
</g>
</svg>
